# xmcd
#
# Track frame offsets:
#	151
#	13843
#	32518
#	46080
#	63076
#	74834
#	90480
#	103931
#	118049
#	132857
#
# Disc length: 1930 seconds
#
# Revision: 0
# Processed by: cddbd v1.4PL0 Copyright (c) Steve Scherf et al.
# Submitted via: dBpowerAMP V4.0
#
DISCID=8407880a
DTITLE=Neko Case - The Peel Sessions
DYEAR=1900
DGENRE=
TTITLE0=Set Out Running
TTITLE1=Make Your Bed
TTITLE2=Cold And Shivering
TTITLE3=Favorite
TTITLE4=Twist The Knife
TTITLE5=Bought And Sold
TTITLE6=Furnace Room Lullaby
TTITLE7=I'll Be Around
TTITLE8=Running Out Of Fools
TTITLE9=Lead On
EXTD=
EXTT0=
EXTT1=
EXTT2=
EXTT3=
EXTT4=
EXTT5=
EXTT6=
EXTT7=
EXTT8=
EXTT9=
PLAYORDER=
